<svg width="268" height="173" viewBox="0 0 268 173" fill="none" xmlns="http://www.w3.org/2000/svg">
<g clip-path="url(#clip0)">
<path d="M113.153 75.6577C120.01 71.5122 126.975 67.4691 133.837 63.3187C139.856 59.6756 145.787 55.9202 151.792 52.2478C158.257 48.312 164.791 44.4445 171.231 40.4795C171.549 40.2716 171.82 39.999 172.025 39.6797V30.2377L125.055 0.18045C124.981 0.8925 124.928 1.20463 124.932 1.50701C125.021 7.92033 125.055 14.3385 125.28 20.7518C125.319 21.8004 125.897 23.1904 126.75 23.7951C130.134 26.102 133.729 28.1503 137.25 30.2914L144.107 34.4759C141.492 36.178 139.209 37.7142 136.814 39.1578C127.092 45.0103 122.288 47.8439 114.055 52.7794C107.634 56.6274 109.157 55.7593 104.122 58.7343C92.093 65.8792 86.0736 69.4638 83.7472 70.7416C79.8584 72.9363 77.1793 74.7652 76.6895 75.0871C74.5296 76.4965 71.6203 77.4768 68.9559 78.2766V86.5432L81.6901 94.6879C83.1888 93.7857 84.8149 92.8005 86.4654 91.8202C89.9184 89.7719 93.3811 87.7381 96.8291 85.6898L101.355 82.9635C105.322 80.5737 109.191 78.0572 113.153 75.6577Z" fill="#F66800"/>
<path d="M170.296 61.1533C165.829 61.1533 161.362 61.1094 156.9 61.0802L141.6 70.3027V78.423H151.464C151.175 78.9936 151.136 79.2521 150.974 79.3447C145.968 82.31 140.955 85.2638 135.933 88.2063C131.451 90.8546 127.004 93.5711 122.464 96.1218C122.062 96.3052 121.628 96.4063 121.186 96.4193C120.742 96.4301 120.3 96.3504 119.888 96.1852C116.288 94.1368 112.845 91.8787 109.245 89.845H109.211L91.0889 100.755L111.802 114.03C114.363 115.557 116.939 117.074 119.54 118.546C120.251 118.843 121.036 118.913 121.788 118.746L171.99 86.5969V62.2116C171.853 61.485 171.363 61.1582 170.296 61.1533Z" fill="white"/>
<path d="M69.3478 70.4734C70.053 70.1905 70.7485 69.8735 71.4244 69.5223C76.9736 66.1718 82.415 62.6555 88.1111 59.5293C90.0702 58.4417 91.0106 57.3005 90.9959 55.4033C90.9616 50.4775 90.9371 45.5468 90.8293 40.6161C90.7902 38.9725 91.4808 37.8313 93.0774 37.0022C94.4243 36.3048 95.7075 35.5049 96.9956 34.7197C103.128 30.979 109.24 27.2578 115.352 23.4586C116.043 23.0343 116.822 22.1808 116.822 21.5078C116.925 14.636 116.89 7.7594 116.89 0.590134L69.1763 31.1253V31.2131C69.1763 43.4838 69.1763 55.7544 69.1763 68.0251C69.1763 68.7225 69.2841 69.3809 69.3478 70.4734Z" fill="white"/>
</g>
<g clip-path="url(#clip1)">
<path d="M17.16 167.787C15.7131 167.912 14.391 167.974 13.2951 167.974C5.78759 167.974 5.78759 165.342 5.78759 161.745C5.78759 158.148 5.78759 155.516 13.2951 155.516C16.2963 155.533 19.2837 155.925 22.1871 156.684V151.514C19.3252 150.823 16.3916 150.471 13.4472 150.467H12.3162C2.70269 150.467 0 155.162 0 160.9V162.551C0 168.297 2.69099 172.992 12.3162 172.992H13.4472C16.5943 172.98 19.7315 172.638 22.8072 171.972V161.679H17.16V167.787Z" fill="white"/>
<path d="M29.012 172.354H49.1399V167.293H34.6709V164.424H46.0199V159.343H34.6709H29.012V172.354Z" fill="white"/>
<path d="M49.1399 151.102H29.012V156.12H49.1399V151.102Z" fill="white"/>
<path d="M75.9797 151.102H53.9525V156.163H62.123V172.354H67.778V156.174H75.968L75.9797 151.102Z" fill="white"/>
<path d="M101.205 167.281H86.7202V164.424H98.0653V159.343H86.7202V156.174H101.205V151.113H81.0613V172.354H101.205V167.281Z" fill="#F66800"/>
<path d="M123.415 164.743L112.382 151.117H106.727V172.354H112.382V158.728L123.415 172.354H129.066V151.102H123.415V164.743Z" fill="#F66800"/>
<path d="M135.256 172.354H155.395V167.293H140.907V164.424H152.252V159.343H140.907V156.174H155.395V151.113H135.256V172.354Z" fill="#F66800"/>
<path d="M182.286 158.709V157.436C182.286 153.597 180.336 150.459 173.316 150.459H172.438C168.596 150.458 164.756 150.67 160.937 151.094V172.346H166.592V165.366C168.697 165.633 170.82 165.739 172.941 165.681L177.138 172.346H182.598V171.077L178.698 164.848C181.408 163.696 182.286 161.379 182.286 158.709ZM171.518 160.609C169.869 160.617 168.221 160.522 166.584 160.324V155.84C168.655 155.649 171.046 155.555 172.489 155.555C176.603 155.555 176.634 156.599 176.634 157.743C176.634 159.744 176.537 160.636 171.51 160.636L171.518 160.609Z" fill="#F66800"/>
<path d="M210.6 161.679H204.945V167.787C203.498 167.912 202.176 167.974 201.08 167.974C193.572 167.974 193.572 165.342 193.572 161.745C193.572 158.148 193.572 155.516 201.08 155.516C204.081 155.533 207.068 155.925 209.972 156.684V151.514C207.112 150.824 204.181 150.472 201.24 150.467H200.105C190.491 150.467 187.789 155.162 187.789 160.904V162.555C187.789 168.297 190.48 172.992 200.105 172.992H201.24C204.387 172.98 207.524 172.638 210.6 171.972V161.679Z" fill="#F66800"/>
<path d="M229.319 150.463H228.188C219.047 150.463 216.489 155.162 216.489 160.9V162.551C216.489 168.293 219.035 172.988 228.188 172.988H229.319C238.465 172.988 241.019 168.293 241.019 162.551V160.9C241.019 155.162 238.457 150.463 229.319 150.463ZM228.746 167.908C222.147 167.908 222.147 164.957 222.147 161.722C222.147 158.487 222.147 155.567 228.746 155.567C235.345 155.567 235.345 158.518 235.345 161.722C235.345 164.926 235.345 167.908 228.746 167.908Z" fill="#F66800"/>
</g>
<path d="M248.219 143.384C248.219 144.514 247.959 145.423 247.439 146.111C246.92 146.795 246.223 147.137 245.348 147.137C244.413 147.137 243.691 146.806 243.181 146.146L243.119 147H241.957V136.5H243.222V140.417C243.732 139.784 244.436 139.467 245.334 139.467C246.232 139.467 246.936 139.806 247.446 140.485C247.961 141.164 248.219 142.094 248.219 143.274V143.384ZM246.954 143.24C246.954 142.379 246.788 141.714 246.455 141.244C246.122 140.775 245.644 140.54 245.02 140.54C244.186 140.54 243.586 140.927 243.222 141.702V144.901C243.609 145.676 244.213 146.063 245.033 146.063C245.639 146.063 246.111 145.829 246.448 145.359C246.785 144.89 246.954 144.184 246.954 143.24ZM252.888 147.137C251.885 147.137 251.069 146.809 250.44 146.152C249.812 145.492 249.497 144.61 249.497 143.507V143.274C249.497 142.541 249.636 141.887 249.914 141.312C250.197 140.734 250.589 140.283 251.09 139.959C251.596 139.631 252.143 139.467 252.73 139.467C253.692 139.467 254.439 139.784 254.973 140.417C255.506 141.05 255.772 141.957 255.772 143.138V143.664H250.762C250.78 144.393 250.992 144.983 251.397 145.435C251.808 145.881 252.327 146.104 252.956 146.104C253.403 146.104 253.781 146.013 254.091 145.831C254.401 145.649 254.672 145.407 254.904 145.106L255.677 145.708C255.057 146.66 254.127 147.137 252.888 147.137ZM252.73 140.506C252.22 140.506 251.792 140.693 251.445 141.066C251.099 141.436 250.885 141.955 250.803 142.625H254.508V142.529C254.471 141.887 254.298 141.39 253.988 141.039C253.678 140.684 253.259 140.506 252.73 140.506ZM258.958 137.812V139.604H260.339V140.581H258.958V145.168C258.958 145.464 259.02 145.688 259.143 145.838C259.266 145.984 259.475 146.057 259.771 146.057C259.917 146.057 260.118 146.029 260.373 145.975V147C260.04 147.091 259.717 147.137 259.402 147.137C258.837 147.137 258.411 146.966 258.124 146.624C257.837 146.282 257.693 145.797 257.693 145.168V140.581H256.347V139.604H257.693V137.812H258.958ZM266.389 147C266.316 146.854 266.257 146.594 266.211 146.221C265.623 146.831 264.921 147.137 264.105 147.137C263.376 147.137 262.777 146.932 262.308 146.521C261.843 146.107 261.61 145.583 261.61 144.949C261.61 144.179 261.902 143.582 262.485 143.158C263.073 142.73 263.898 142.516 264.96 142.516H266.19V141.935C266.19 141.493 266.058 141.142 265.794 140.882C265.53 140.618 265.14 140.485 264.625 140.485C264.174 140.485 263.796 140.599 263.49 140.827C263.185 141.055 263.032 141.331 263.032 141.654H261.761C261.761 141.285 261.891 140.93 262.15 140.588C262.415 140.242 262.77 139.968 263.217 139.768C263.668 139.567 264.162 139.467 264.7 139.467C265.552 139.467 266.22 139.681 266.703 140.109C267.186 140.533 267.437 141.119 267.455 141.866V145.271C267.455 145.95 267.542 146.49 267.715 146.891V147H266.389ZM264.29 146.036C264.687 146.036 265.062 145.934 265.418 145.729C265.773 145.523 266.031 145.257 266.19 144.929V143.411H265.199C263.65 143.411 262.875 143.865 262.875 144.771C262.875 145.168 263.007 145.478 263.271 145.701C263.536 145.924 263.875 146.036 264.29 146.036Z" fill="white"/>
<defs>
<clipPath id="clip0">
<path d="M69 0H172V119H69V0Z" fill="white"/>
</clipPath>
<clipPath id="clip1">
<path d="M0 150H241V173H0V150Z" fill="white"/>
</clipPath>
</defs>
</svg>
